# xmcd
#
# Track frame offsets:
#	150
#	21592
#	36984
#	46723
#	62866
#	81607
#	113581
#	130028
#	144351
#	154736
#	176710
#	189255
#	211313
#	227962
#	247470
#
# Disc length: 3441 seconds
#
# Revision: 0
# Processed by: cddbd v1.5.2PL0 Copyright (c) Steve Scherf et al.
# Submitted via: FairStars CD Ripper 1.60
#
DISCID=d90d6f0f
DTITLE=Mighty Sparrow - Sparromania! [disc 1]
DYEAR=2012
DGENRE=Calypso
TTITLE0=Bongo
TTITLE1=Zinah
TTITLE2=Fool Fool Fool
TTITLE3=Calypso Boogaloo
TTITLE4=Congo Man
TTITLE5=Slave
TTITLE6=Kennedy And Krushchev
TTITLE7=Ten To One Is Murder
TTITLE8=She's Been Gone Too Long
TTITLE9=Mi Son Cha (Sparrow and His Troubadours)
TTITLE10=Sweet Loving
TTITLE11=Shango Man (Live At The Hilton, Barbados)
TTITLE12=Oriental Touch
TTITLE13=Ah Diggin' Horrors
TTITLE14=Try A Little Tenderness (with Byron Lee)
EXTD=
EXTT0=
EXTT1=
EXTT2=
EXTT3=
EXTT4=
EXTT5=
EXTT6=
EXTT7=
EXTT8=
EXTT9=
EXTT10=
EXTT11=
EXTT12=
EXTT13=
EXTT14=
PLAYORDER=
